<svg id="svg" version="1.1" xmlns="http://www.w3.org/2000/svg" xmlns:xlink="http://www.w3.org/1999/xlink" width="400" height="400" viewBox="0, 0, 400,400"><g id="svgg"><path id="path0" d="M164.989 51.618 C 164.847 51.848,164.753 58.867,164.781 67.215 C 164.815 77.366,164.689 82.660,164.402 83.197 C 163.977 83.991,163.606 84.000,131.229 84.000 C 101.740 84.000,98.461 84.063,98.243 84.633 C 98.109 84.981,98.000 99.989,98.000 117.984 C 98.000 147.004,97.930 150.760,97.382 151.215 C 96.898 151.617,91.516 151.753,72.518 151.844 C 53.167 151.937,48.205 152.066,47.942 152.480 C 47.439 153.273,47.510 249.884,48.014 250.826 C 48.416 251.578,49.113 251.600,72.734 251.600 C 91.105 251.600,97.157 251.717,97.520 252.080 C 97.886 252.446,98.000 260.450,98.000 285.666 C 98.000 317.987,98.018 318.782,98.774 319.186 C 99.289 319.462,110.309 319.600,131.725 319.600 C 158.544 319.600,163.978 319.692,164.359 320.150 C 164.684 320.542,164.808 325.081,164.790 335.961 C 164.777 344.354,164.874 351.396,165.006 351.610 C 165.520 352.441,206.388 352.093,214.278 351.191 C 229.703 349.428,243.827 346.114,255.200 341.591 C 256.410 341.110,258.062 340.470,258.870 340.170 C 272.465 335.123,292.128 323.061,303.403 312.852 C 304.285 312.053,306.668 309.898,308.698 308.061 C 316.430 301.069,328.299 286.682,333.190 278.373 C 333.894 277.178,335.266 274.850,336.239 273.200 C 337.212 271.550,339.198 267.770,340.651 264.800 C 342.105 261.830,343.446 259.098,343.632 258.729 C 344.591 256.826,348.305 246.824,349.175 243.800 C 352.205 233.271,353.137 228.772,354.609 217.578 C 355.399 211.568,355.274 189.326,354.419 183.600 C 353.442 177.065,351.931 169.363,350.730 164.800 C 350.065 162.270,349.359 159.570,349.162 158.800 C 348.965 158.030,348.338 156.140,347.769 154.600 C 347.199 153.060,346.494 151.080,346.202 150.200 C 343.176 141.093,336.588 128.388,329.090 117.200 C 317.167 99.407,295.998 80.036,278.015 70.460 C 263.461 62.709,251.850 58.216,238.400 55.129 C 235.329 54.424,232.844 53.955,225.959 52.783 C 217.103 51.275,165.807 50.295,164.989 51.618 " stroke="none" fill="#db291d" fill-rule="evenodd"></path><path id="path1" d="M0.000 200.000 L 0.000 400.000 200.000 400.000 L 400.000 400.000 400.000 200.000 L 400.000 0.000 200.000 0.000 L 0.000 0.000 0.000 200.000 M217.759 51.802 C 221.036 52.132,224.726 52.573,225.959 52.783 C 232.844 53.955,235.329 54.424,238.400 55.129 C 251.850 58.216,263.461 62.709,278.015 70.460 C 295.998 80.036,317.167 99.407,329.090 117.200 C 336.588 128.388,343.176 141.093,346.202 150.200 C 346.494 151.080,347.199 153.060,347.769 154.600 C 348.338 156.140,348.965 158.030,349.162 158.800 C 349.359 159.570,350.065 162.270,350.730 164.800 C 351.931 169.363,353.442 177.065,354.419 183.600 C 356.904 200.232,354.818 224.188,349.175 243.800 C 348.305 246.824,344.591 256.826,343.632 258.729 C 343.446 259.098,342.105 261.830,340.651 264.800 C 339.198 267.770,337.212 271.550,336.239 273.200 C 335.266 274.850,333.894 277.178,333.190 278.373 C 328.299 286.682,316.430 301.069,308.698 308.061 C 306.668 309.898,304.285 312.053,303.403 312.852 C 292.128 323.061,272.465 335.123,258.870 340.170 C 258.062 340.470,256.410 341.110,255.200 341.591 C 243.827 346.114,229.703 349.428,214.278 351.191 C 206.388 352.093,165.520 352.441,165.006 351.610 C 164.874 351.396,164.777 344.354,164.790 335.961 C 164.808 325.081,164.684 320.542,164.359 320.150 C 163.978 319.692,158.544 319.600,131.725 319.600 C 110.309 319.600,99.289 319.462,98.774 319.186 C 98.018 318.782,98.000 317.987,98.000 285.666 C 98.000 260.450,97.886 252.446,97.520 252.080 C 97.157 251.717,91.105 251.600,72.734 251.600 C 49.113 251.600,48.416 251.578,48.014 250.826 C 47.510 249.884,47.439 153.273,47.942 152.480 C 48.205 152.066,53.167 151.937,72.518 151.844 C 91.516 151.753,96.898 151.617,97.382 151.215 C 97.930 150.760,98.000 147.004,98.000 117.984 C 98.000 99.989,98.109 84.981,98.243 84.633 C 98.461 84.063,101.740 84.000,131.229 84.000 C 163.606 84.000,163.977 83.991,164.402 83.197 C 164.689 82.660,164.815 77.366,164.781 67.215 C 164.753 58.867,164.847 51.848,164.989 51.618 C 165.426 50.911,210.464 51.067,217.759 51.802 " stroke="none" fill="#fcfbfb" fill-rule="evenodd"></path><path id="path2" d="M164.989 51.618 C 164.847 51.848,164.753 58.867,164.781 67.215 C 164.815 77.366,164.689 82.660,164.402 83.197 C 163.977 83.991,163.606 84.000,131.229 84.000 C 101.740 84.000,98.461 84.063,98.243 84.633 C 98.109 84.981,98.000 99.989,98.000 117.984 C 98.000 147.004,97.930 150.760,97.382 151.215 C 96.898 151.617,91.516 151.753,72.518 151.844 C 53.167 151.937,48.205 152.066,47.942 152.480 C 47.439 153.273,47.510 249.884,48.014 250.826 C 48.416 251.578,49.113 251.600,72.734 251.600 C 91.105 251.600,97.157 251.717,97.520 252.080 C 97.886 252.446,98.000 260.450,98.000 285.666 C 98.000 317.987,98.018 318.782,98.774 319.186 C 99.289 319.462,110.309 319.600,131.725 319.600 C 158.544 319.600,163.978 319.692,164.359 320.150 C 164.684 320.542,164.808 325.081,164.790 335.961 C 164.777 344.354,164.874 351.396,165.006 351.610 C 165.520 352.441,206.388 352.093,214.278 351.191 C 229.703 349.428,243.827 346.114,255.200 341.591 C 256.410 341.110,258.062 340.470,258.870 340.170 C 272.465 335.123,292.128 323.061,303.403 312.852 C 304.285 312.053,306.668 309.898,308.698 308.061 C 316.430 301.069,328.299 286.682,333.190 278.373 C 333.894 277.178,335.266 274.850,336.239 273.200 C 337.212 271.550,339.198 267.770,340.651 264.800 C 342.105 261.830,343.446 259.098,343.632 258.729 C 344.591 256.826,348.305 246.824,349.175 243.800 C 352.205 233.271,353.137 228.772,354.609 217.578 C 355.399 211.568,355.274 189.326,354.419 183.600 C 353.442 177.065,351.931 169.363,350.730 164.800 C 350.065 162.270,349.359 159.570,349.162 158.800 C 348.965 158.030,348.338 156.140,347.769 154.600 C 347.199 153.060,346.494 151.080,346.202 150.200 C 343.176 141.093,336.588 128.388,329.090 117.200 C 317.167 99.407,295.998 80.036,278.015 70.460 C 263.461 62.709,251.850 58.216,238.400 55.129 C 235.329 54.424,232.844 53.955,225.959 52.783 C 217.103 51.275,165.807 50.295,164.989 51.618 " stroke="none" fill="#db291d" fill-rule="evenodd"></path><path id="path3" d="M164.989 51.618 C 164.847 51.848,164.753 58.867,164.781 67.215 C 164.815 77.366,164.689 82.660,164.402 83.197 C 163.977 83.991,163.606 84.000,131.229 84.000 C 101.740 84.000,98.461 84.063,98.243 84.633 C 98.109 84.981,98.000 99.989,98.000 117.984 C 98.000 147.004,97.930 150.760,97.382 151.215 C 96.898 151.617,91.516 151.753,72.518 151.844 C 53.167 151.937,48.205 152.066,47.942 152.480 C 47.439 153.273,47.510 249.884,48.014 250.826 C 48.416 251.578,49.113 251.600,72.734 251.600 C 91.105 251.600,97.157 251.717,97.520 252.080 C 97.886 252.446,98.000 260.450,98.000 285.666 C 98.000 317.987,98.018 318.782,98.774 319.186 C 99.289 319.462,110.309 319.600,131.725 319.600 C 158.544 319.600,163.978 319.692,164.359 320.150 C 164.684 320.542,164.808 325.081,164.790 335.961 C 164.777 344.354,164.874 351.396,165.006 351.610 C 165.520 352.441,206.388 352.093,214.278 351.191 C 229.703 349.428,243.827 346.114,255.200 341.591 C 256.410 341.110,258.062 340.470,258.870 340.170 C 272.465 335.123,292.128 323.061,303.403 312.852 C 304.285 312.053,306.668 309.898,308.698 308.061 C 316.430 301.069,328.299 286.682,333.190 278.373 C 333.894 277.178,335.266 274.850,336.239 273.200 C 337.212 271.550,339.198 267.770,340.651 264.800 C 342.105 261.830,343.446 259.098,343.632 258.729 C 344.591 256.826,348.305 246.824,349.175 243.800 C 352.205 233.271,353.137 228.772,354.609 217.578 C 355.399 211.568,355.274 189.326,354.419 183.600 C 353.442 177.065,351.931 169.363,350.730 164.800 C 350.065 162.270,349.359 159.570,349.162 158.800 C 348.965 158.030,348.338 156.140,347.769 154.600 C 347.199 153.060,346.494 151.080,346.202 150.200 C 343.176 141.093,336.588 128.388,329.090 117.200 C 317.167 99.407,295.998 80.036,278.015 70.460 C 263.461 62.709,251.850 58.216,238.400 55.129 C 235.329 54.424,232.844 53.955,225.959 52.783 C 217.103 51.275,165.807 50.295,164.989 51.618 " stroke="none" fill="#db291d" fill-rule="evenodd"></path><path id="path4" d="M164.989 51.618 C 164.847 51.848,164.753 58.867,164.781 67.215 C 164.815 77.366,164.689 82.660,164.402 83.197 C 163.977 83.991,163.606 84.000,131.229 84.000 C 101.740 84.000,98.461 84.063,98.243 84.633 C 98.109 84.981,98.000 99.989,98.000 117.984 C 98.000 147.004,97.930 150.760,97.382 151.215 C 96.898 151.617,91.516 151.753,72.518 151.844 C 53.167 151.937,48.205 152.066,47.942 152.480 C 47.439 153.273,47.510 249.884,48.014 250.826 C 48.416 251.578,49.113 251.600,72.734 251.600 C 91.105 251.600,97.157 251.717,97.520 252.080 C 97.886 252.446,98.000 260.450,98.000 285.666 C 98.000 317.987,98.018 318.782,98.774 319.186 C 99.289 319.462,110.309 319.600,131.725 319.600 C 158.544 319.600,163.978 319.692,164.359 320.150 C 164.684 320.542,164.808 325.081,164.790 335.961 C 164.777 344.354,164.874 351.396,165.006 351.610 C 165.520 352.441,206.388 352.093,214.278 351.191 C 229.703 349.428,243.827 346.114,255.200 341.591 C 256.410 341.110,258.062 340.470,258.870 340.170 C 272.465 335.123,292.128 323.061,303.403 312.852 C 304.285 312.053,306.668 309.898,308.698 308.061 C 316.430 301.069,328.299 286.682,333.190 278.373 C 333.894 277.178,335.266 274.850,336.239 273.200 C 337.212 271.550,339.198 267.770,340.651 264.800 C 342.105 261.830,343.446 259.098,343.632 258.729 C 344.591 256.826,348.305 246.824,349.175 243.800 C 352.205 233.271,353.137 228.772,354.609 217.578 C 355.399 211.568,355.274 189.326,354.419 183.600 C 353.442 177.065,351.931 169.363,350.730 164.800 C 350.065 162.270,349.359 159.570,349.162 158.800 C 348.965 158.030,348.338 156.140,347.769 154.600 C 347.199 153.060,346.494 151.080,346.202 150.200 C 343.176 141.093,336.588 128.388,329.090 117.200 C 317.167 99.407,295.998 80.036,278.015 70.460 C 263.461 62.709,251.850 58.216,238.400 55.129 C 235.329 54.424,232.844 53.955,225.959 52.783 C 217.103 51.275,165.807 50.295,164.989 51.618 " stroke="none" fill="#db291d" fill-rule="evenodd"></path></g></svg>